<?xml version="1.0" encoding="UTF-8"?>
<svg xmlns="http://www.w3.org/2000/svg"
     width="512"
     height="512"
     viewBox="142 22 990 990"
     role="img"
     aria-labelledby="title desc">
  <title id="title">Andrade Turismo favicon</title>
  <desc id="desc">Isotipo de Andrade Turismo sin texto y con fondo transparente.</desc>

  <g fill="#FFFFFF" fill-rule="evenodd" clip-rule="evenodd">
    <path d="M 1096 807 L 1095 805 L 1090 801 L 1081 801 L 1080 800 L 1072 800 L 1071 801 L 1051 801 L 1050 800 L 1041 800 L 1040 801 L 959 801 L 958 802 L 944 802 L 943 801 L 940 801 L 939 802 L 903 802 L 901 803 L 901 804 L 903 805 L 917 805 L 918 806 L 957 807 L 958 808 L 978 808 L 979 809 L 995 809 L 996 810 L 1022 810 L 1023 811 L 1061 812 L 1062 813 L 1081 813 L 1082 814 L 1082 899 L 1081 900 L 755 900 L 754 899 L 775 892 L 783 888 L 788 887 L 793 884 L 795 884 L 819 872 L 833 863 L 848 851 L 867 831 L 878 816 L 881 810 L 881 808 L 879 807 L 873 813 L 873 814 L 848 838 L 843 841 L 835 848 L 826 853 L 818 859 L 811 862 L 809 864 L 785 875 L 780 876 L 775 879 L 756 885 L 753 887 L 729 895 L 726 895 L 716 899 L 713 899 L 702 903 L 699 903 L 687 907 L 683 907 L 679 909 L 676 909 L 673 911 L 677 913 L 704 913 L 705 914 L 1088 914 L 1094 910 L 1096 905 Z M 178 807 L 178 906 L 179 909 L 182 912 L 187 914 L 594 914 L 595 913 L 601 913 L 603 912 L 603 910 L 588 907 L 584 905 L 573 903 L 569 901 L 565 901 L 561 899 L 557 899 L 554 897 L 551 897 L 544 894 L 541 894 L 514 885 L 511 883 L 506 882 L 503 880 L 488 875 L 481 871 L 479 871 L 472 867 L 466 865 L 464 863 L 457 860 L 447 853 L 444 852 L 424 837 L 402 816 L 396 808 L 393 808 L 393 810 L 396 816 L 402 823 L 407 831 L 427 852 L 442 864 L 451 870 L 469 879 L 473 882 L 475 882 L 480 885 L 482 885 L 495 891 L 519 899 L 518 900 L 192 900 L 191 899 L 191 814 L 192 813 L 228 812 L 229 811 L 247 811 L 248 810 L 283 809 L 284 808 L 307 808 L 308 807 L 322 807 L 323 806 L 364 805 L 365 804 L 369 804 L 368 802 L 351 802 L 350 801 L 341 801 L 340 802 L 315 802 L 314 801 L 311 801 L 310 802 L 307 802 L 306 801 L 221 801 L 220 800 L 213 800 L 212 801 L 197 801 L 196 800 L 186 800 L 183 801 Z M 470 728 L 471 727 L 472 728 L 471 729 Z M 469 727 L 470 726 L 471 727 L 470 728 Z M 468 725 L 469 724 L 470 725 L 469 726 Z M 467 724 L 468 723 L 469 724 L 468 725 Z M 466 722 L 467 721 L 468 722 L 467 723 Z M 465 721 L 466 720 L 467 721 L 466 722 Z M 464 719 L 465 718 L 466 719 L 465 720 Z M 463 717 L 464 716 L 465 718 L 464 719 Z M 735 621 L 735 623 L 737 623 L 743 627 L 747 632 L 750 632 L 755 627 L 763 623 L 763 622 L 760 622 L 759 621 L 754 621 L 748 624 L 744 621 Z M 658 612 L 658 614 L 669 617 L 680 624 L 686 631 L 688 631 L 688 630 L 698 621 L 707 617 L 717 616 L 718 614 L 712 612 L 700 611 L 699 612 L 695 612 L 689 615 L 686 618 L 683 615 L 672 611 L 661 611 Z M 725 597 L 725 598 L 731 601 L 738 607 L 746 601 L 752 599 L 752 597 L 749 597 L 748 596 L 745 596 L 738 599 L 732 596 L 731 597 L 730 596 Z M 696 584 L 696 585 L 702 588 L 707 593 L 710 593 L 715 589 L 724 586 L 723 584 L 720 584 L 719 583 L 713 583 L 709 585 L 703 583 L 702 584 Z M 749 575 L 750 577 L 754 578 L 763 585 L 765 585 L 771 580 L 777 577 L 779 577 L 779 575 L 767 575 L 765 577 L 756 574 Z M 667 422 L 668 423 L 672 423 L 673 424 L 684 426 L 699 431 L 709 436 L 711 436 L 735 449 L 751 460 L 768 476 L 769 476 L 789 500 L 799 516 L 807 532 L 818 565 L 817 566 L 820 575 L 821 599 L 822 600 L 821 629 L 820 630 L 819 643 L 818 644 L 817 652 L 816 653 L 816 656 L 812 667 L 811 673 L 798 701 L 794 706 L 789 715 L 779 728 L 760 747 L 748 757 L 728 770 L 714 777 L 712 777 L 699 783 L 690 786 L 683 787 L 682 788 L 673 789 L 668 791 L 667 790 L 666 791 L 661 791 L 660 792 L 646 792 L 645 793 L 627 793 L 626 792 L 620 792 L 619 793 L 618 792 L 613 792 L 612 791 L 605 791 L 600 789 L 590 788 L 566 780 L 541 768 L 539 766 L 531 762 L 511 747 L 493 729 L 480 712 L 481 711 L 477 707 L 478 706 L 475 704 L 474 702 L 475 701 L 473 700 L 468 689 L 465 686 L 464 682 L 462 679 L 462 677 L 464 675 L 461 673 L 462 672 L 457 657 L 456 649 L 455 648 L 455 643 L 453 638 L 453 629 L 452 628 L 452 620 L 451 619 L 451 602 L 452 601 L 451 600 L 452 599 L 452 589 L 453 588 L 454 576 L 455 575 L 455 572 L 457 567 L 457 563 L 460 556 L 460 553 L 463 544 L 465 541 L 467 534 L 480 509 L 497 486 L 519 464 L 521 464 L 523 461 L 527 459 L 534 453 L 543 448 L 548 444 L 566 435 L 581 430 L 584 428 L 585 429 L 585 433 L 586 434 L 585 435 L 586 436 L 587 442 L 589 446 L 591 447 L 594 436 L 598 428 L 602 424 L 605 423 L 611 423 L 612 422 L 617 422 L 618 423 L 618 426 L 617 427 L 618 446 L 619 447 L 619 451 L 623 460 L 623 462 L 631 476 L 642 487 L 646 488 L 646 486 L 644 484 L 640 475 L 640 472 L 638 469 L 637 461 L 636 460 L 636 441 L 637 440 L 637 435 L 638 434 L 639 427 L 642 421 L 644 425 L 645 431 L 650 440 L 660 450 L 667 454 L 676 457 L 689 457 L 704 452 L 708 449 L 708 448 L 702 448 L 701 447 L 694 446 L 684 442 L 674 435 L 663 423 L 664 422 Z M 930 417 L 927 421 L 927 791 L 928 794 L 932 796 L 1050 795 L 1051 793 L 1044 792 L 1043 791 L 1022 790 L 1021 789 L 1015 789 L 1014 788 L 1004 788 L 1003 787 L 993 787 L 992 786 L 981 786 L 980 785 L 974 785 L 973 784 L 942 782 L 941 781 L 941 691 L 940 690 L 941 431 L 942 430 L 1038 430 L 1039 431 L 1039 442 L 1040 443 L 1040 491 L 1041 492 L 1041 517 L 1042 518 L 1041 519 L 1042 522 L 1042 555 L 1043 556 L 1043 588 L 1044 589 L 1044 619 L 1045 620 L 1045 649 L 1046 650 L 1046 686 L 1047 687 L 1047 712 L 1048 713 L 1048 736 L 1049 737 L 1049 765 L 1050 766 L 1051 788 L 1052 788 L 1053 786 L 1053 420 L 1050 417 Z M 219 418 L 219 420 L 225 420 L 226 421 L 236 421 L 237 422 L 244 422 L 245 423 L 266 424 L 267 425 L 273 425 L 274 426 L 286 426 L 287 427 L 295 427 L 296 428 L 320 429 L 321 430 L 332 430 L 333 431 L 333 781 L 332 782 L 235 782 L 234 781 L 234 776 L 233 775 L 233 744 L 232 743 L 232 704 L 231 703 L 230 654 L 229 653 L 229 624 L 228 623 L 228 597 L 227 596 L 227 567 L 226 566 L 226 543 L 225 542 L 225 516 L 224 515 L 224 496 L 223 495 L 223 476 L 222 475 L 222 456 L 221 455 L 222 454 L 222 451 L 221 450 L 221 432 L 219 431 L 218 433 L 218 516 L 219 517 L 219 537 L 218 538 L 218 544 L 219 545 L 219 612 L 218 613 L 218 635 L 219 636 L 219 771 L 220 772 L 220 793 L 224 796 L 343 796 L 346 794 L 347 791 L 347 420 L 344 417 L 249 417 L 248 418 Z M 593 406 L 594 407 L 591 412 L 569 418 L 535 434 L 529 439 L 523 442 L 503 458 L 487 474 L 476 488 L 464 507 L 451 534 L 450 539 L 448 542 L 445 551 L 443 562 L 441 566 L 440 577 L 439 578 L 439 585 L 438 586 L 438 593 L 437 594 L 438 636 L 439 637 L 441 654 L 442 655 L 445 670 L 451 688 L 455 696 L 455 698 L 459 705 L 459 707 L 464 715 L 463 717 L 454 704 L 448 692 L 443 677 L 441 674 L 441 671 L 438 664 L 437 656 L 436 655 L 436 650 L 435 649 L 434 638 L 433 637 L 433 626 L 432 625 L 432 596 L 433 595 L 433 585 L 434 584 L 434 579 L 435 578 L 434 577 L 436 572 L 436 567 L 438 563 L 439 556 L 444 543 L 444 540 L 448 532 L 448 530 L 458 509 L 460 507 L 467 494 L 482 474 L 503 452 L 521 438 L 542 425 L 568 413 L 583 408 L 587 408 Z M 624 402 L 621 408 L 616 408 L 615 409 L 613 408 L 619 403 L 623 401 Z M 649 378 L 650 377 L 651 378 L 650 379 Z M 620 348 L 615 356 L 615 359 L 613 363 L 613 373 L 615 377 L 615 380 L 620 389 L 619 391 L 616 391 L 615 392 L 607 392 L 606 393 L 601 393 L 600 394 L 595 394 L 594 395 L 589 395 L 585 397 L 581 397 L 574 400 L 567 401 L 556 406 L 554 406 L 549 409 L 547 409 L 528 419 L 520 425 L 517 426 L 495 443 L 477 461 L 463 479 L 451 498 L 440 520 L 440 522 L 436 530 L 428 554 L 428 557 L 425 566 L 425 570 L 424 571 L 423 583 L 422 584 L 422 594 L 421 595 L 421 628 L 422 629 L 422 639 L 424 645 L 425 657 L 427 661 L 429 671 L 433 683 L 435 686 L 435 688 L 445 709 L 458 730 L 471 746 L 498 772 L 514 784 L 530 793 L 532 795 L 555 806 L 560 807 L 563 809 L 575 813 L 582 814 L 586 816 L 595 817 L 596 818 L 611 819 L 612 820 L 623 820 L 624 821 L 660 820 L 661 819 L 667 819 L 668 818 L 674 818 L 675 817 L 684 816 L 685 815 L 696 813 L 700 811 L 703 811 L 712 808 L 715 806 L 717 806 L 720 804 L 722 804 L 725 802 L 727 802 L 743 794 L 745 792 L 758 785 L 779 769 L 803 744 L 814 729 L 815 726 L 823 714 L 832 696 L 832 694 L 836 686 L 843 665 L 843 661 L 845 657 L 847 644 L 848 643 L 848 639 L 849 638 L 848 637 L 849 635 L 849 630 L 850 629 L 850 613 L 851 612 L 850 585 L 849 584 L 848 568 L 846 563 L 846 559 L 844 555 L 843 547 L 836 526 L 832 518 L 832 516 L 822 496 L 820 494 L 814 483 L 803 468 L 784 448 L 784 447 L 760 428 L 744 418 L 735 414 L 733 412 L 731 412 L 720 406 L 718 406 L 707 401 L 704 401 L 700 399 L 693 398 L 685 395 L 666 393 L 665 392 L 668 389 L 691 379 L 700 378 L 701 377 L 717 377 L 717 376 L 712 372 L 701 367 L 693 366 L 692 365 L 680 365 L 679 366 L 678 365 L 677 366 L 673 366 L 664 370 L 662 370 L 651 378 L 650 377 L 651 372 L 657 361 L 663 355 L 670 351 L 666 349 L 660 349 L 647 354 L 641 360 L 635 370 L 633 376 L 633 381 L 632 382 L 626 372 L 623 363 L 622 348 Z M 623 340 L 657 340 L 658 341 L 668 341 L 669 342 L 674 342 L 675 343 L 687 344 L 688 345 L 696 346 L 700 348 L 711 350 L 720 353 L 723 355 L 731 357 L 767 374 L 789 388 L 806 401 L 814 409 L 815 409 L 842 437 L 857 457 L 858 460 L 864 468 L 870 480 L 872 482 L 882 503 L 882 505 L 884 508 L 885 513 L 889 522 L 889 525 L 892 531 L 892 534 L 894 538 L 894 541 L 896 546 L 896 550 L 898 555 L 898 560 L 899 561 L 899 566 L 900 567 L 900 573 L 901 574 L 901 579 L 902 580 L 901 581 L 902 583 L 902 600 L 903 601 L 903 620 L 902 621 L 902 632 L 901 633 L 902 635 L 901 636 L 901 641 L 899 647 L 899 653 L 897 658 L 897 663 L 894 671 L 893 678 L 888 693 L 886 696 L 884 704 L 872 730 L 870 732 L 867 739 L 856 756 L 835 783 L 814 804 L 785 827 L 782 828 L 774 834 L 764 839 L 762 841 L 746 849 L 744 849 L 734 854 L 726 856 L 723 858 L 714 861 L 707 862 L 703 864 L 696 865 L 695 866 L 691 866 L 690 867 L 686 867 L 680 869 L 673 869 L 672 870 L 666 870 L 665 871 L 654 871 L 653 872 L 619 872 L 618 871 L 599 870 L 598 869 L 594 869 L 593 868 L 589 868 L 583 866 L 578 866 L 577 865 L 566 863 L 559 860 L 556 860 L 553 858 L 550 858 L 547 856 L 542 855 L 527 848 L 525 848 L 521 845 L 519 845 L 506 838 L 504 836 L 499 834 L 473 816 L 453 798 L 452 798 L 430 774 L 419 760 L 403 735 L 394 717 L 394 715 L 387 700 L 381 682 L 381 679 L 379 675 L 379 671 L 377 667 L 377 662 L 374 653 L 374 645 L 372 639 L 372 625 L 371 624 L 371 587 L 372 586 L 373 571 L 374 570 L 374 565 L 375 564 L 375 560 L 376 559 L 376 555 L 377 554 L 377 550 L 378 549 L 379 542 L 382 535 L 382 532 L 389 511 L 408 473 L 416 462 L 417 459 L 440 430 L 461 409 L 474 398 L 501 379 L 517 371 L 519 369 L 521 369 L 536 361 L 538 361 L 546 357 L 570 349 L 577 348 L 581 346 L 590 345 L 591 344 L 610 342 L 611 341 L 622 341 Z M 619 327 L 618 328 L 606 328 L 600 330 L 593 330 L 588 332 L 587 331 L 582 333 L 578 333 L 577 334 L 570 335 L 566 337 L 559 338 L 547 342 L 544 344 L 534 347 L 527 351 L 525 351 L 503 362 L 478 378 L 451 400 L 431 420 L 416 438 L 415 441 L 408 449 L 396 468 L 378 504 L 377 509 L 375 512 L 375 515 L 371 523 L 370 529 L 368 533 L 368 536 L 366 540 L 365 549 L 363 553 L 363 558 L 361 564 L 361 571 L 360 572 L 360 577 L 359 578 L 359 590 L 358 591 L 358 629 L 359 630 L 359 636 L 360 637 L 360 646 L 361 647 L 362 659 L 364 664 L 364 668 L 366 672 L 367 681 L 370 688 L 370 691 L 375 706 L 387 733 L 389 735 L 393 744 L 397 749 L 401 757 L 406 763 L 410 770 L 427 791 L 453 817 L 473 833 L 496 848 L 519 860 L 521 860 L 528 864 L 541 868 L 544 870 L 547 870 L 550 872 L 553 872 L 567 877 L 575 878 L 584 881 L 590 881 L 595 883 L 615 884 L 616 885 L 655 885 L 656 884 L 668 884 L 669 883 L 674 883 L 675 882 L 689 881 L 693 879 L 706 877 L 720 872 L 723 872 L 726 870 L 737 867 L 747 862 L 754 860 L 756 858 L 777 848 L 800 833 L 823 814 L 844 793 L 865 767 L 870 758 L 873 755 L 874 752 L 878 747 L 890 724 L 890 722 L 893 717 L 893 715 L 899 702 L 899 699 L 901 696 L 901 693 L 905 683 L 905 680 L 910 665 L 909 664 L 912 656 L 913 644 L 914 643 L 914 638 L 915 637 L 915 624 L 916 623 L 916 587 L 915 586 L 913 563 L 911 558 L 911 553 L 909 548 L 909 544 L 908 543 L 906 532 L 903 525 L 903 522 L 898 507 L 896 504 L 892 492 L 880 468 L 877 465 L 872 455 L 869 452 L 858 435 L 845 421 L 845 420 L 827 402 L 827 401 L 823 399 L 809 386 L 797 378 L 793 374 L 784 369 L 779 365 L 757 353 L 755 353 L 746 348 L 731 343 L 728 341 L 713 336 L 710 336 L 701 333 L 697 333 L 692 331 L 683 330 L 682 329 L 677 329 L 676 328 L 667 328 L 666 327 Z M 227 269 L 236 263 L 238 263 L 241 261 L 253 257 L 256 257 L 261 255 L 265 255 L 266 254 L 272 254 L 278 252 L 290 252 L 291 251 L 327 251 L 328 252 L 351 254 L 352 255 L 365 257 L 374 260 L 390 268 L 386 280 L 385 288 L 382 294 L 383 295 L 382 296 L 235 296 L 234 295 L 235 294 L 233 290 L 233 287 L 231 284 L 231 281 Z M 714 248 L 727 248 L 728 249 L 728 293 L 727 294 L 728 295 L 727 296 L 714 296 L 713 295 L 713 249 Z M 548 248 L 560 248 L 561 249 L 561 295 L 560 296 L 548 296 L 547 295 L 547 249 Z M 1024 237 L 1023 238 L 1022 248 L 1020 253 L 1019 261 L 1017 264 L 949 264 L 948 265 L 913 265 L 912 264 L 913 263 L 913 245 L 914 244 L 941 243 L 942 242 L 953 242 L 954 241 L 970 241 L 971 240 L 980 240 L 981 239 L 990 239 L 991 238 L 1002 238 L 1003 237 L 1017 237 L 1018 236 L 1023 236 Z M 559 215 L 560 204 L 561 203 L 561 198 L 562 197 L 562 191 L 563 190 L 563 184 L 564 183 L 564 177 L 565 176 L 566 166 L 567 165 L 655 165 L 656 166 L 668 166 L 669 165 L 670 166 L 708 166 L 709 167 L 709 206 L 708 207 L 690 207 L 689 208 L 656 209 L 655 210 L 636 210 L 635 211 L 624 211 L 623 212 L 620 211 L 619 212 L 591 213 L 590 214 L 573 214 L 572 215 L 561 215 L 560 216 Z M 553 157 L 553 217 L 556 219 L 672 219 L 673 218 L 718 218 L 720 217 L 722 214 L 722 159 L 721 156 L 717 153 L 557 153 L 555 154 Z M 755 126 L 755 136 L 754 137 L 755 138 L 754 139 L 754 159 L 753 160 L 753 174 L 752 175 L 752 185 L 751 186 L 751 201 L 750 202 L 749 230 L 747 235 L 526 235 L 525 234 L 525 137 L 526 136 L 543 136 L 544 135 L 545 136 L 546 135 L 563 135 L 564 134 L 588 134 L 589 133 L 625 132 L 626 131 L 649 131 L 650 130 L 672 130 L 673 129 L 685 129 L 686 128 L 729 127 L 730 126 L 746 126 L 747 125 L 754 125 Z M 1097 309 L 1096 308 L 1096 305 L 1091 300 L 1088 299 L 1052 299 L 1051 298 L 1052 297 L 1051 296 L 1051 289 L 1052 288 L 1052 276 L 1051 275 L 1052 272 L 1051 271 L 1052 269 L 1051 267 L 1047 264 L 1030 264 L 1029 263 L 1028 233 L 902 233 L 901 234 L 901 265 L 900 266 L 892 266 L 887 268 L 888 269 L 915 270 L 916 271 L 918 270 L 919 271 L 929 271 L 930 272 L 949 272 L 950 273 L 970 273 L 971 274 L 988 274 L 989 275 L 1010 275 L 1011 276 L 1038 277 L 1039 278 L 1039 295 L 1038 296 L 892 296 L 891 295 L 891 291 L 887 281 L 887 278 L 886 277 L 886 274 L 884 268 L 881 266 L 879 268 L 879 272 L 880 273 L 880 299 L 879 300 L 878 299 L 858 299 L 857 300 L 855 299 L 847 299 L 846 300 L 836 300 L 835 299 L 833 300 L 775 300 L 774 299 L 771 300 L 769 299 L 766 300 L 757 300 L 756 299 L 748 299 L 747 300 L 744 300 L 743 299 L 742 300 L 741 299 L 741 249 L 742 248 L 758 248 L 762 245 L 762 120 L 745 120 L 744 121 L 588 121 L 587 122 L 512 122 L 510 124 L 510 145 L 511 146 L 510 147 L 511 149 L 511 244 L 513 247 L 516 248 L 533 248 L 534 249 L 534 298 L 533 299 L 520 299 L 519 300 L 459 300 L 458 299 L 447 299 L 446 300 L 405 300 L 402 299 L 401 300 L 398 300 L 395 299 L 394 300 L 393 299 L 393 292 L 394 291 L 393 265 L 386 257 L 368 247 L 359 244 L 352 243 L 351 242 L 342 241 L 341 240 L 332 240 L 331 239 L 322 239 L 321 238 L 319 239 L 318 238 L 317 239 L 314 239 L 313 238 L 305 238 L 304 239 L 281 240 L 280 241 L 269 242 L 261 245 L 257 245 L 237 254 L 230 259 L 224 266 L 224 271 L 223 272 L 224 273 L 223 274 L 224 298 L 223 299 L 186 299 L 181 301 L 179 303 L 177 308 L 177 405 L 180 410 L 185 412 L 279 412 L 280 411 L 339 411 L 340 410 L 354 411 L 355 410 L 374 410 L 375 409 L 381 409 L 381 407 L 373 407 L 372 406 L 371 407 L 370 406 L 369 407 L 365 407 L 364 406 L 349 406 L 348 405 L 327 405 L 326 404 L 312 404 L 311 403 L 287 403 L 286 402 L 267 402 L 266 401 L 222 400 L 221 399 L 203 399 L 202 398 L 192 398 L 191 399 L 190 398 L 190 314 L 191 313 L 516 313 L 517 314 L 493 322 L 477 329 L 475 329 L 451 341 L 442 347 L 425 361 L 408 379 L 393 400 L 392 404 L 395 404 L 418 380 L 429 371 L 452 355 L 479 341 L 481 341 L 504 331 L 512 329 L 515 327 L 530 322 L 533 322 L 546 317 L 549 317 L 560 313 L 563 313 L 564 312 L 567 312 L 568 311 L 571 311 L 572 310 L 575 310 L 576 309 L 579 309 L 580 308 L 603 303 L 604 300 L 575 299 L 574 298 L 574 249 L 575 248 L 700 248 L 701 249 L 701 299 L 700 300 L 673 299 L 672 302 L 677 304 L 688 306 L 692 308 L 696 308 L 700 310 L 711 312 L 715 314 L 722 315 L 746 323 L 749 323 L 758 326 L 761 328 L 764 328 L 770 331 L 775 332 L 778 334 L 783 335 L 798 342 L 800 342 L 827 356 L 830 359 L 844 368 L 862 385 L 863 385 L 880 404 L 882 403 L 882 400 L 878 395 L 873 386 L 863 373 L 847 357 L 825 341 L 818 338 L 814 335 L 812 335 L 808 332 L 806 332 L 801 329 L 799 329 L 794 326 L 784 323 L 781 321 L 759 314 L 760 313 L 1082 313 L 1083 314 L 1083 397 L 1082 398 L 1072 398 L 1071 399 L 1045 399 L 1044 400 L 1023 400 L 1022 401 L 1003 401 L 1002 402 L 979 402 L 978 403 L 940 404 L 939 405 L 919 405 L 918 406 L 897 406 L 896 407 L 893 407 L 893 409 L 907 409 L 908 410 L 962 410 L 963 411 L 1038 411 L 1039 412 L 1089 412 L 1092 411 L 1096 407 L 1096 404 L 1097 403 L 1097 392 L 1096 391 L 1096 360 L 1097 359 L 1097 349 L 1096 348 L 1096 345 L 1097 344 L 1097 340 L 1096 339 L 1096 324 L 1097 323 Z"/>
  </g>

  <g fill="#0783D1" fill-rule="evenodd" clip-rule="evenodd">
    <path d="M 568 774 L 586 781 L 589 781 L 594 783 L 598 783 L 599 784 L 603 784 L 604 785 L 620 786 L 621 787 L 645 787 L 646 786 L 663 785 L 668 783 L 677 782 L 704 773 L 712 769 L 712 767 L 709 763 L 701 756 L 693 753 L 685 753 L 678 756 L 664 771 L 652 776 L 642 776 L 633 773 L 630 771 L 613 755 L 607 754 L 606 753 L 597 753 L 587 758 L 587 759 L 578 768 Z M 503 736 L 512 744 L 514 743 L 523 743 L 529 745 L 531 747 L 534 748 L 548 763 L 553 765 L 562 765 L 567 763 L 573 758 L 579 750 L 590 744 L 596 743 L 597 742 L 607 742 L 608 743 L 612 743 L 621 747 L 629 754 L 634 761 L 642 765 L 650 765 L 656 763 L 659 761 L 671 748 L 674 747 L 676 745 L 685 742 L 697 742 L 708 747 L 713 751 L 717 757 L 723 763 L 725 763 L 727 761 L 730 760 L 736 755 L 727 754 L 717 750 L 712 746 L 708 740 L 703 735 L 700 733 L 694 732 L 693 731 L 685 731 L 682 732 L 676 736 L 666 748 L 659 752 L 652 753 L 651 754 L 641 754 L 632 751 L 624 744 L 621 739 L 617 735 L 609 731 L 596 731 L 593 733 L 591 733 L 588 735 L 575 749 L 569 752 L 566 752 L 561 754 L 554 754 L 553 753 L 546 752 L 544 750 L 541 749 L 531 737 L 523 732 L 512 731 L 505 734 Z M 491 722 L 497 727 L 506 721 L 510 721 L 511 720 L 521 720 L 522 721 L 525 721 L 535 726 L 540 731 L 544 737 L 549 741 L 552 742 L 563 742 L 570 739 L 583 725 L 592 721 L 606 720 L 607 721 L 612 721 L 624 727 L 636 740 L 640 742 L 648 743 L 658 739 L 668 728 L 676 723 L 682 721 L 685 721 L 686 720 L 696 720 L 697 721 L 701 721 L 710 726 L 716 732 L 718 736 L 724 741 L 728 743 L 734 743 L 735 744 L 736 743 L 742 743 L 744 742 L 760 728 L 772 724 L 780 715 L 782 711 L 781 710 L 773 710 L 772 711 L 769 711 L 762 715 L 751 725 L 738 730 L 731 730 L 730 729 L 723 728 L 717 725 L 710 719 L 707 714 L 702 709 L 694 706 L 687 706 L 679 709 L 676 711 L 671 718 L 663 725 L 659 726 L 656 728 L 648 729 L 647 730 L 632 726 L 625 720 L 622 715 L 617 710 L 607 706 L 597 706 L 590 709 L 577 723 L 572 726 L 570 726 L 567 728 L 563 728 L 562 729 L 553 729 L 552 728 L 551 729 L 542 725 L 537 721 L 531 712 L 526 708 L 521 706 L 509 706 L 503 709 Z M 475 701 L 480 709 L 484 712 L 488 710 L 498 700 L 503 697 L 509 696 L 510 695 L 520 695 L 533 700 L 546 714 L 555 718 L 556 717 L 564 717 L 570 714 L 582 701 L 589 697 L 595 695 L 609 695 L 610 696 L 613 696 L 622 701 L 638 716 L 644 718 L 649 718 L 650 717 L 656 716 L 659 714 L 669 703 L 681 696 L 684 696 L 685 695 L 696 695 L 697 696 L 703 697 L 708 700 L 716 708 L 716 709 L 724 716 L 729 718 L 739 718 L 747 715 L 755 707 L 766 700 L 772 699 L 773 698 L 774 699 L 775 698 L 787 698 L 788 697 L 791 698 L 796 689 L 796 687 L 791 684 L 785 683 L 784 682 L 773 683 L 764 687 L 752 698 L 743 702 L 727 702 L 726 701 L 723 701 L 714 696 L 702 683 L 693 680 L 686 680 L 678 683 L 667 695 L 657 701 L 653 701 L 652 702 L 643 702 L 642 701 L 641 702 L 640 701 L 634 700 L 629 697 L 618 685 L 613 682 L 607 680 L 596 680 L 588 684 L 583 690 L 574 698 L 564 702 L 563 701 L 562 702 L 553 702 L 552 701 L 548 701 L 540 697 L 536 693 L 534 689 L 528 683 L 519 680 L 511 680 L 505 682 L 501 685 L 494 693 L 486 697 L 476 698 Z M 805 668 L 802 665 L 791 660 L 779 660 L 773 663 L 771 663 L 756 676 L 744 680 L 732 680 L 726 678 L 719 674 L 711 666 L 711 665 L 705 660 L 697 657 L 690 657 L 681 661 L 667 676 L 665 676 L 660 679 L 647 680 L 632 674 L 622 663 L 615 659 L 611 659 L 610 658 L 600 658 L 592 662 L 588 667 L 579 675 L 566 680 L 557 680 L 544 675 L 537 666 L 531 661 L 523 658 L 513 658 L 506 662 L 494 673 L 488 675 L 483 675 L 482 676 L 463 677 L 463 679 L 467 687 L 478 687 L 487 684 L 498 673 L 504 670 L 512 669 L 513 668 L 517 668 L 518 669 L 519 668 L 533 673 L 540 679 L 542 683 L 547 688 L 551 690 L 562 691 L 572 686 L 574 683 L 585 673 L 600 668 L 607 668 L 608 669 L 611 669 L 617 671 L 622 674 L 629 681 L 629 682 L 637 689 L 639 689 L 642 691 L 651 691 L 658 688 L 672 674 L 674 674 L 681 670 L 684 670 L 685 669 L 698 669 L 708 673 L 716 681 L 717 684 L 722 688 L 730 691 L 741 691 L 750 686 L 758 678 L 768 673 L 771 673 L 776 671 L 785 671 L 786 672 L 791 672 L 797 674 L 802 677 L 804 674 Z"/>
  </g>

  <g fill="#FF850B" fill-rule="evenodd" clip-rule="evenodd">
    <path d="M 463 667 L 463 674 L 485 674 L 486 673 L 490 673 L 493 671 L 495 671 L 509 658 L 515 656 L 522 656 L 532 660 L 545 674 L 549 676 L 551 676 L 554 678 L 568 678 L 569 677 L 572 677 L 581 672 L 592 660 L 603 656 L 609 656 L 610 657 L 614 657 L 622 661 L 632 672 L 631 670 L 630 660 L 629 659 L 629 656 L 627 650 L 625 648 L 625 646 L 620 636 L 609 622 L 599 613 L 587 605 L 569 598 L 565 598 L 559 596 L 536 596 L 535 597 L 527 598 L 515 602 L 505 607 L 496 613 L 488 620 L 475 636 L 468 650 L 465 659 L 464 666 Z"/>
  </g>
</svg>
